<svg width="25" height="25" viewBox="0 0 25 25" fill="none" xmlns="http://www.w3.org/2000/svg">
<path d="M14.0817 9.8V12.7H16.6817C16.8817 12.7 16.9817 12.9 16.9817 13.1L16.5817 15C16.5817 15.1 16.3817 15.2 16.2817 15.2H14.0817V22.5H11.0817V15.3H9.38167C9.18167 15.3 9.08167 15.2 9.08167 15V13.1C9.08167 12.9 9.18167 12.8 9.38167 12.8H11.0817V9.5C11.0817 7.8 12.3817 6.5 14.0817 6.5H16.7817C16.9817 6.5 17.0817 6.6 17.0817 6.8V9.2C17.0817 9.4 16.9817 9.5 16.7817 9.5H14.3817C14.1817 9.5 14.0817 9.6 14.0817 9.8Z" stroke="#3B3B3B" stroke-width="1.5" stroke-miterlimit="10" stroke-linecap="round"/>
<path d="M15.0817 22.5H9.08167C4.08167 22.5 2.08167 20.5 2.08167 15.5V9.5C2.08167 4.5 4.08167 2.5 9.08167 2.5H15.0817C20.0817 2.5 22.0817 4.5 22.0817 9.5V15.5C22.0817 20.5 20.0817 22.5 15.0817 22.5Z" stroke="#3B3B3B" stroke-width="1.5" stroke-linecap="round" stroke-linejoin="round"/>
</svg>
