<svg width="25" height="25" viewBox="0 0 25 25" fill="none" xmlns="http://www.w3.org/2000/svg">
<path d="M21.6816 10.7H12.2816V14.4H17.7816C17.6816 15.3 17.0816 16.7 15.7816 17.6C14.9816 18.2 13.7816 18.6 12.2816 18.6C9.68162 18.6 7.38162 16.9 6.58162 14.4C6.38162 13.8 6.28162 13.1 6.28162 12.4C6.28162 11.7 6.38162 11 6.58162 10.4C6.68162 10.2 6.68162 10 6.78162 9.9C7.68162 7.8 9.78162 6.3 12.2816 6.3C14.1816 6.3 15.3816 7.1 16.1816 7.8L18.9816 5C17.2816 3.5 14.9816 2.5 12.2816 2.5C8.38162 2.5 4.98162 4.7 3.38162 8C2.68162 9.4 2.28162 10.9 2.28162 12.5C2.28162 14.1 2.68162 15.6 3.38162 17C4.98162 20.3 8.38162 22.5 12.2816 22.5C14.9816 22.5 17.2816 21.6 18.8816 20.1C20.7816 18.4 21.8816 15.8 21.8816 12.7C21.8816 11.9 21.7816 11.3 21.6816 10.7Z" stroke="#3B3B3B" stroke-width="1.5" stroke-miterlimit="10" stroke-linecap="round" stroke-linejoin="round"/>
</svg>
