<svg width="610" height="479" viewBox="0 0 610 479" fill="none" xmlns="http://www.w3.org/2000/svg">
<g filter="url(#filter0_d_134_1413)">
<rect x="53" width="504" height="470" rx="5" fill="white"/>
<path d="M131.276 50.7226L114.775 40.6148L97.7749 50.7226L97.7749 70.4054L114.775 80.1148L131.276 70.4054L131.276 50.7226Z" fill="#003585"/>
<path d="M97.6601 50.6824L114.063 41.0934L116.839 45.8415L103.026 53.9165L103.251 64.2097L121.381 53.6112L124.157 58.3594L106.027 68.9578L114.886 74.2041L128.699 66.1291L131.222 70.4457L114.819 80.0347L97.8591 70.837L97.6601 50.6824Z" fill="#A7F65C"/>
<path d="M138.852 54.2348V59.1348H145.432V62.2428H138.852V67.4228H146.272V70.6148H134.932V51.0428H146.272V54.2348H138.852ZM153.754 49.8948V70.6148H149.834V49.8948H153.754ZM172.047 62.5228C172.047 63.0828 172.01 63.5868 171.935 64.0348H160.595C160.689 65.1548 161.081 66.0322 161.771 66.6668C162.462 67.3015 163.311 67.6188 164.319 67.6188C165.775 67.6188 166.811 66.9935 167.427 65.7428H171.655C171.207 67.2362 170.349 68.4682 169.079 69.4388C167.81 70.3908 166.251 70.8668 164.403 70.8668C162.91 70.8668 161.566 70.5402 160.371 69.8868C159.195 69.2148 158.271 68.2722 157.599 67.0588C156.946 65.8455 156.619 64.4455 156.619 62.8588C156.619 61.2535 156.946 59.8442 157.599 58.6308C158.253 57.4175 159.167 56.4842 160.343 55.8308C161.519 55.1775 162.873 54.8508 164.403 54.8508C165.878 54.8508 167.194 55.1682 168.351 55.8028C169.527 56.4375 170.433 57.3428 171.067 58.5188C171.721 59.6762 172.047 61.0108 172.047 62.5228ZM167.987 61.4028C167.969 60.3948 167.605 59.5922 166.895 58.9948C166.186 58.3788 165.318 58.0708 164.291 58.0708C163.321 58.0708 162.499 58.3695 161.827 58.9668C161.174 59.5455 160.773 60.3575 160.623 61.4028H167.987ZM173.901 62.8588C173.901 61.2535 174.227 59.8535 174.881 58.6588C175.534 57.4455 176.439 56.5122 177.597 55.8588C178.754 55.1868 180.079 54.8508 181.573 54.8508C183.495 54.8508 185.082 55.3362 186.333 56.3068C187.602 57.2588 188.451 58.6028 188.881 60.3388H184.653C184.429 59.6668 184.046 59.1442 183.505 58.7708C182.982 58.3788 182.329 58.1828 181.545 58.1828C180.425 58.1828 179.538 58.5935 178.885 59.4148C178.231 60.2175 177.905 61.3655 177.905 62.8588C177.905 64.3335 178.231 65.4815 178.885 66.3028C179.538 67.1055 180.425 67.5068 181.545 67.5068C183.131 67.5068 184.167 66.7975 184.653 65.3788H188.881C188.451 67.0588 187.602 68.3935 186.333 69.3828C185.063 70.3722 183.477 70.8668 181.573 70.8668C180.079 70.8668 178.754 70.5402 177.597 69.8868C176.439 69.2148 175.534 68.2815 174.881 67.0868C174.227 65.8735 173.901 64.4642 173.901 62.8588ZM196.316 58.3228V65.8268C196.316 66.3495 196.438 66.7322 196.68 66.9748C196.942 67.1988 197.371 67.3108 197.968 67.3108H199.788V70.6148H197.324C194.02 70.6148 192.368 69.0095 192.368 65.7988V58.3228H190.52V55.1028H192.368V51.2668H196.316V55.1028H199.788V58.3228H196.316ZM209.496 70.8668C208.002 70.8668 206.658 70.5402 205.464 69.8868C204.269 69.2148 203.326 68.2722 202.636 67.0588C201.964 65.8455 201.628 64.4455 201.628 62.8588C201.628 61.2722 201.973 59.8722 202.664 58.6588C203.373 57.4455 204.334 56.5122 205.548 55.8588C206.761 55.1868 208.114 54.8508 209.608 54.8508C211.101 54.8508 212.454 55.1868 213.668 55.8588C214.881 56.5122 215.833 57.4455 216.524 58.6588C217.233 59.8722 217.588 61.2722 217.588 62.8588C217.588 64.4455 217.224 65.8455 216.496 67.0588C215.786 68.2722 214.816 69.2148 213.584 69.8868C212.37 70.5402 211.008 70.8668 209.496 70.8668ZM209.496 67.4508C210.205 67.4508 210.868 67.2828 211.484 66.9468C212.118 66.5922 212.622 66.0695 212.996 65.3788C213.369 64.6882 213.556 63.8482 213.556 62.8588C213.556 61.3842 213.164 60.2548 212.38 59.4708C211.614 58.6682 210.672 58.2668 209.552 58.2668C208.432 58.2668 207.489 58.6682 206.724 59.4708C205.977 60.2548 205.604 61.3842 205.604 62.8588C205.604 64.3335 205.968 65.4722 206.696 66.2748C207.442 67.0588 208.376 67.4508 209.496 67.4508ZM229.059 54.8788C230.907 54.8788 232.401 55.4668 233.539 56.6428C234.678 57.8002 235.247 59.4242 235.247 61.5148V70.6148H231.327V62.0468C231.327 60.8148 231.019 59.8722 230.403 59.2188C229.787 58.5468 228.947 58.2108 227.883 58.2108C226.801 58.2108 225.942 58.5468 225.307 59.2188C224.691 59.8722 224.383 60.8148 224.383 62.0468V70.6148H220.463V55.1028H224.383V57.0348C224.906 56.3628 225.569 55.8402 226.371 55.4668C227.193 55.0748 228.089 54.8788 229.059 54.8788Z" fill="#003585"/>
<path d="M503.432 43.0565L514.569 54.1935L503.432 43.0565ZM513.773 42.261C514.212 41.8217 514.925 41.8217 515.364 42.261C515.803 42.7004 515.803 43.4127 515.364 43.852L510.591 48.6245L515.364 53.398C515.803 53.8373 515.803 54.5496 515.364 54.9889C514.925 55.4283 514.212 55.4283 513.773 54.9889L509 50.2155L504.227 54.9889C503.819 55.3969 503.176 55.426 502.734 55.0764L502.636 54.9889C502.197 54.5496 502.197 53.8373 502.636 53.398L507.409 48.6245L502.636 43.852C502.197 43.4127 502.197 42.7004 502.636 42.261C503.075 41.8217 503.788 41.8217 504.227 42.261L509 47.0335L513.773 42.261Z" fill="#AFADB5"/>
<rect x="89.5" y="117.622" width="431" height="47" rx="4.5" fill="white"/>
<path d="M117.092 141.713C117.909 141.071 118.505 140.189 118.798 139.192C119.09 138.194 119.065 137.13 118.725 136.148C118.385 135.166 117.747 134.314 116.9 133.711C116.053 133.108 115.04 132.784 114 132.784C112.96 132.784 111.947 133.108 111.1 133.711C110.253 134.314 109.615 135.166 109.275 136.148C108.935 137.13 108.91 138.194 109.202 139.192C109.495 140.189 110.091 141.071 110.908 141.713C109.508 142.274 108.287 143.205 107.374 144.405C106.461 145.606 105.891 147.031 105.725 148.53C105.713 148.64 105.723 148.75 105.753 148.856C105.784 148.962 105.835 149.06 105.904 149.146C106.043 149.32 106.246 149.431 106.467 149.455C106.688 149.479 106.909 149.415 107.083 149.276C107.256 149.137 107.367 148.934 107.392 148.713C107.575 147.084 108.351 145.58 109.574 144.487C110.796 143.395 112.377 142.791 114.017 142.791C115.656 142.791 117.238 143.395 118.46 144.487C119.682 145.58 120.459 147.084 120.642 148.713C120.664 148.918 120.762 149.107 120.916 149.244C121.07 149.381 121.269 149.456 121.475 149.455H121.567C121.785 149.43 121.985 149.32 122.122 149.148C122.259 148.976 122.323 148.757 122.3 148.538C122.133 147.035 121.56 145.606 120.642 144.404C119.725 143.201 118.497 142.271 117.092 141.713ZM114 141.122C113.341 141.122 112.696 140.926 112.148 140.56C111.6 140.194 111.173 139.673 110.92 139.064C110.668 138.455 110.602 137.785 110.731 137.138C110.859 136.492 111.177 135.898 111.643 135.431C112.109 134.965 112.703 134.648 113.35 134.519C113.996 134.391 114.667 134.457 115.276 134.709C115.885 134.961 116.405 135.388 116.772 135.937C117.138 136.485 117.333 137.129 117.333 137.788C117.333 138.673 116.982 139.52 116.357 140.145C115.732 140.771 114.884 141.122 114 141.122Z" fill="#AFADB5"/>
<path d="M135.409 134.985H136.795V144.145H136.909L143.273 134.985H144.636V146.622H143.227V137.485H143.114L136.773 146.622H135.409V134.985ZM152.274 141.008V142.258H147.183V141.008H152.274ZM159.406 144.804L162.452 137.895H163.724L159.952 146.622H158.861L155.156 137.895H156.406L159.406 144.804ZM155.974 137.895V146.622H154.634V137.895H155.974ZM162.838 146.622V137.895H164.179V146.622H162.838ZM169.52 139.031C169.217 139.035 168.912 139.112 168.605 139.264C168.302 139.415 168.048 139.616 167.844 139.866C167.643 140.112 167.543 140.387 167.543 140.69H166.224C166.224 140.311 166.315 139.948 166.497 139.599C166.679 139.251 166.923 138.94 167.23 138.667C167.541 138.395 167.893 138.179 168.287 138.02C168.685 137.86 169.096 137.781 169.52 137.781C170.315 137.781 170.99 137.982 171.543 138.383C172.099 138.785 172.522 139.315 172.81 139.974C173.101 140.633 173.247 141.349 173.247 142.122V142.44C173.247 143.209 173.101 143.925 172.81 144.588C172.522 145.247 172.099 145.777 171.543 146.179C170.99 146.58 170.315 146.781 169.52 146.781C168.884 146.781 168.317 146.641 167.821 146.36C167.325 146.076 166.935 145.698 166.651 145.224C166.366 144.751 166.224 144.224 166.224 143.645H167.543C167.543 143.974 167.635 144.283 167.821 144.571C168.01 144.855 168.255 145.086 168.554 145.264C168.857 145.438 169.179 145.527 169.52 145.531C170.027 145.527 170.459 145.368 170.815 145.054C171.171 144.739 171.442 144.345 171.628 143.872C171.813 143.398 171.906 142.921 171.906 142.44V142.122C171.906 141.629 171.813 141.148 171.628 140.679C171.446 140.205 171.177 139.813 170.821 139.502C170.469 139.192 170.035 139.035 169.52 139.031ZM172.452 141.599V142.849H168.634V141.599H172.452ZM176.631 144.645L180.835 137.895H182.381V146.622H181.04V139.872L176.858 146.622H175.29V137.895H176.631V144.645ZM179.949 134.985H181.199C181.199 135.599 180.987 136.101 180.562 136.491C180.138 136.881 179.563 137.076 178.835 137.076C178.119 137.076 177.549 136.881 177.125 136.491C176.705 136.101 176.494 135.599 176.494 134.985H177.744C177.744 135.281 177.826 135.54 177.989 135.764C178.155 135.987 178.438 136.099 178.835 136.099C179.233 136.099 179.517 135.987 179.688 135.764C179.862 135.54 179.949 135.281 179.949 134.985ZM184.064 146.622V145.372H184.382C184.643 145.372 184.861 145.321 185.036 145.218C185.21 145.112 185.35 144.929 185.456 144.667C185.566 144.402 185.649 144.035 185.706 143.565C185.767 143.091 185.81 142.489 185.837 141.758L185.996 137.895H191.814V146.622H190.473V139.145H187.268L187.132 142.258C187.102 142.974 187.037 143.605 186.939 144.15C186.844 144.692 186.698 145.146 186.501 145.514C186.308 145.881 186.051 146.158 185.729 146.343C185.407 146.529 185.003 146.622 184.518 146.622H184.064ZM201.661 139.031C201.357 139.035 201.053 139.112 200.746 139.264C200.443 139.415 200.189 139.616 199.984 139.866C199.784 140.112 199.683 140.387 199.683 140.69H198.365C198.365 140.311 198.456 139.948 198.638 139.599C198.82 139.251 199.064 138.94 199.371 138.667C199.681 138.395 200.034 138.179 200.428 138.02C200.825 137.86 201.236 137.781 201.661 137.781C202.456 137.781 203.13 137.982 203.683 138.383C204.24 138.785 204.662 139.315 204.95 139.974C205.242 140.633 205.388 141.349 205.388 142.122V142.44C205.388 143.209 205.242 143.925 204.95 144.588C204.662 145.247 204.24 145.777 203.683 146.179C203.13 146.58 202.456 146.781 201.661 146.781C201.024 146.781 200.458 146.641 199.962 146.36C199.465 146.076 199.075 145.698 198.791 145.224C198.507 144.751 198.365 144.224 198.365 143.645H199.683C199.683 143.974 199.776 144.283 199.962 144.571C200.151 144.855 200.395 145.086 200.695 145.264C200.998 145.438 201.32 145.527 201.661 145.531C202.168 145.527 202.6 145.368 202.956 145.054C203.312 144.739 203.583 144.345 203.768 143.872C203.954 143.398 204.047 142.921 204.047 142.44V142.122C204.047 141.629 203.954 141.148 203.768 140.679C203.587 140.205 203.318 139.813 202.962 139.502C202.609 139.192 202.176 139.035 201.661 139.031ZM204.592 141.599V142.849H200.774V141.599H204.592ZM210.976 146.804C210.158 146.804 209.453 146.61 208.862 146.224C208.271 145.838 207.817 145.306 207.499 144.627C207.18 143.949 207.021 143.175 207.021 142.304C207.021 141.417 207.184 140.635 207.51 139.957C207.839 139.275 208.298 138.743 208.885 138.36C209.476 137.974 210.165 137.781 210.953 137.781C211.567 137.781 212.12 137.895 212.612 138.122C213.105 138.349 213.508 138.667 213.822 139.076C214.137 139.485 214.332 139.963 214.408 140.508H213.067C212.964 140.11 212.737 139.758 212.385 139.451C212.036 139.141 211.567 138.985 210.976 138.985C210.453 138.985 209.995 139.122 209.601 139.395C209.211 139.663 208.906 140.044 208.686 140.537C208.47 141.025 208.362 141.599 208.362 142.258C208.362 142.932 208.468 143.52 208.68 144.02C208.896 144.52 209.199 144.908 209.589 145.184C209.983 145.461 210.446 145.599 210.976 145.599C211.324 145.599 211.641 145.538 211.925 145.417C212.209 145.296 212.449 145.122 212.646 144.895C212.843 144.667 212.983 144.395 213.067 144.076H214.408C214.332 144.591 214.144 145.056 213.845 145.468C213.55 145.877 213.158 146.203 212.669 146.446C212.184 146.684 211.62 146.804 210.976 146.804ZM216.368 146.622V137.895H219.936C220.875 137.895 221.622 138.107 222.175 138.531C222.728 138.955 223.004 139.516 223.004 140.213C223.004 140.743 222.847 141.154 222.533 141.446C222.218 141.734 221.815 141.929 221.322 142.031C221.644 142.076 221.957 142.19 222.26 142.372C222.567 142.554 222.821 142.804 223.021 143.122C223.222 143.436 223.322 143.823 223.322 144.281C223.322 144.728 223.209 145.127 222.982 145.48C222.754 145.832 222.429 146.11 222.004 146.315C221.58 146.52 221.072 146.622 220.482 146.622H216.368ZM217.641 145.395H220.482C220.944 145.395 221.305 145.285 221.567 145.065C221.828 144.845 221.959 144.546 221.959 144.167C221.959 143.716 221.828 143.362 221.567 143.105C221.305 142.843 220.944 142.713 220.482 142.713H217.641V145.395ZM217.641 141.554H219.936C220.296 141.554 220.605 141.504 220.862 141.406C221.12 141.304 221.317 141.16 221.453 140.974C221.593 140.785 221.663 140.561 221.663 140.304C221.663 139.936 221.51 139.648 221.203 139.44C220.896 139.228 220.474 139.122 219.936 139.122H217.641V141.554ZM228.239 139.031C227.936 139.035 227.631 139.112 227.324 139.264C227.021 139.415 226.767 139.616 226.562 139.866C226.362 140.112 226.261 140.387 226.261 140.69H224.943C224.943 140.311 225.034 139.948 225.216 139.599C225.398 139.251 225.642 138.94 225.949 138.667C226.259 138.395 226.612 138.179 227.006 138.02C227.403 137.86 227.814 137.781 228.239 137.781C229.034 137.781 229.708 137.982 230.261 138.383C230.818 138.785 231.241 139.315 231.528 139.974C231.82 140.633 231.966 141.349 231.966 142.122V142.44C231.966 143.209 231.82 143.925 231.528 144.588C231.241 145.247 230.818 145.777 230.261 146.179C229.708 146.58 229.034 146.781 228.239 146.781C227.602 146.781 227.036 146.641 226.54 146.36C226.044 146.076 225.653 145.698 225.369 145.224C225.085 144.751 224.943 144.224 224.943 143.645H226.261C226.261 143.974 226.354 144.283 226.54 144.571C226.729 144.855 226.973 145.086 227.273 145.264C227.576 145.438 227.898 145.527 228.239 145.531C228.746 145.527 229.178 145.368 229.534 145.054C229.89 144.739 230.161 144.345 230.347 143.872C230.532 143.398 230.625 142.921 230.625 142.44V142.122C230.625 141.629 230.532 141.148 230.347 140.679C230.165 140.205 229.896 139.813 229.54 139.502C229.188 139.192 228.754 139.035 228.239 139.031ZM231.17 141.599V142.849H227.352V141.599H231.17ZM233.236 146.622V145.372H233.554C233.815 145.372 234.033 145.321 234.207 145.218C234.382 145.112 234.522 144.929 234.628 144.667C234.738 144.402 234.821 144.035 234.878 143.565C234.938 143.091 234.982 142.489 235.009 141.758L235.168 137.895H240.986V146.622H239.645V139.145H236.44L236.304 142.258C236.274 142.974 236.209 143.605 236.111 144.15C236.016 144.692 235.87 145.146 235.673 145.514C235.48 145.881 235.223 146.158 234.901 146.343C234.579 146.529 234.175 146.622 233.69 146.622H233.236ZM248.741 146.781V145.463H249.469C249.749 145.463 249.984 145.408 250.173 145.298C250.366 145.188 250.526 145.046 250.651 144.872C250.779 144.698 250.885 144.516 250.969 144.326L251.151 143.895L247.128 134.985H248.651L251.855 142.213L254.787 134.985H256.287L252.264 144.735C252.105 145.099 251.923 145.436 251.719 145.747C251.518 146.057 251.243 146.307 250.895 146.497C250.55 146.686 250.082 146.781 249.491 146.781H248.741ZM257.43 139.145V137.895H264.521V139.145H261.658V146.622H260.317V139.145H257.43ZM268.592 146.826C268.039 146.826 267.537 146.722 267.087 146.514C266.636 146.302 266.278 145.997 266.013 145.599C265.748 145.198 265.615 144.713 265.615 144.145C265.615 143.645 265.714 143.239 265.911 142.929C266.107 142.614 266.371 142.368 266.7 142.19C267.03 142.012 267.393 141.879 267.791 141.792C268.193 141.701 268.596 141.629 269.001 141.576C269.532 141.508 269.962 141.457 270.291 141.423C270.625 141.385 270.867 141.323 271.018 141.235C271.174 141.148 271.251 140.997 271.251 140.781V140.735C271.251 140.175 271.098 139.739 270.791 139.429C270.488 139.118 270.028 138.963 269.411 138.963C268.77 138.963 268.268 139.103 267.905 139.383C267.541 139.663 267.286 139.963 267.138 140.281L265.865 139.826C266.092 139.296 266.395 138.883 266.774 138.588C267.157 138.288 267.573 138.08 268.024 137.963C268.479 137.841 268.926 137.781 269.365 137.781C269.645 137.781 269.967 137.815 270.331 137.883C270.698 137.948 271.053 138.082 271.393 138.287C271.738 138.491 272.024 138.8 272.251 139.213C272.479 139.626 272.592 140.179 272.592 140.872V146.622H271.251V145.44H271.183C271.092 145.629 270.941 145.832 270.729 146.048C270.517 146.264 270.234 146.448 269.882 146.599C269.53 146.751 269.1 146.826 268.592 146.826ZM268.797 145.622C269.327 145.622 269.774 145.518 270.138 145.309C270.505 145.101 270.782 144.832 270.967 144.502C271.157 144.173 271.251 143.826 271.251 143.463V142.235C271.195 142.304 271.07 142.366 270.876 142.423C270.687 142.476 270.467 142.523 270.217 142.565C269.971 142.603 269.731 142.637 269.496 142.667C269.265 142.694 269.077 142.716 268.933 142.735C268.585 142.781 268.259 142.855 267.956 142.957C267.657 143.056 267.414 143.205 267.229 143.406C267.047 143.603 266.956 143.872 266.956 144.213C266.956 144.679 267.128 145.031 267.473 145.27C267.821 145.504 268.263 145.622 268.797 145.622ZM278.585 146.804C277.767 146.804 277.063 146.61 276.472 146.224C275.881 145.838 275.426 145.306 275.108 144.627C274.79 143.949 274.631 143.175 274.631 142.304C274.631 141.417 274.794 140.635 275.119 139.957C275.449 139.275 275.907 138.743 276.494 138.36C277.085 137.974 277.775 137.781 278.562 137.781C279.176 137.781 279.729 137.895 280.222 138.122C280.714 138.349 281.117 138.667 281.432 139.076C281.746 139.485 281.941 139.963 282.017 140.508H280.676C280.574 140.11 280.347 139.758 279.994 139.451C279.646 139.141 279.176 138.985 278.585 138.985C278.063 138.985 277.604 139.122 277.21 139.395C276.82 139.663 276.515 140.044 276.295 140.537C276.08 141.025 275.972 141.599 275.972 142.258C275.972 142.932 276.078 143.52 276.29 144.02C276.506 144.52 276.809 144.908 277.199 145.184C277.593 145.461 278.055 145.599 278.585 145.599C278.934 145.599 279.25 145.538 279.534 145.417C279.818 145.296 280.059 145.122 280.256 144.895C280.453 144.667 280.593 144.395 280.676 144.076H282.017C281.941 144.591 281.754 145.056 281.455 145.468C281.159 145.877 280.767 146.203 280.278 146.446C279.794 146.684 279.229 146.804 278.585 146.804ZM289.818 141.645V142.895H285V141.645H289.818ZM285.318 137.895V146.622H283.977V137.895H285.318ZM290.841 137.895V146.622H289.5V137.895H290.841ZM294.449 141.054H296.949C297.972 141.054 298.754 141.313 299.295 141.832C299.837 142.351 300.108 143.008 300.108 143.804C300.108 144.326 299.987 144.802 299.744 145.23C299.502 145.654 299.146 145.993 298.676 146.247C298.206 146.497 297.631 146.622 296.949 146.622H293.29V137.895H294.631V145.372H296.949C297.479 145.372 297.915 145.232 298.256 144.951C298.597 144.671 298.767 144.311 298.767 143.872C298.767 143.41 298.597 143.033 298.256 142.741C297.915 142.449 297.479 142.304 296.949 142.304H294.449V141.054ZM301.494 146.622V137.895H302.835V146.622H301.494ZM308.858 149.122V145.372H309.585C309.763 145.186 309.917 144.985 310.045 144.77C310.174 144.554 310.286 144.298 310.381 144.002C310.479 143.703 310.563 143.34 310.631 142.912C310.699 142.48 310.759 141.959 310.812 141.349L311.108 137.895H316.653V145.372H317.994V149.122H316.653V146.622H310.199V149.122H308.858ZM311.108 145.372H315.312V139.145H312.358L312.131 141.349C312.036 142.262 311.919 143.059 311.778 143.741C311.638 144.423 311.415 144.966 311.108 145.372ZM320.638 149.895C320.411 149.895 320.208 149.876 320.03 149.838C319.852 149.804 319.729 149.77 319.661 149.735L320.001 148.554C320.327 148.637 320.615 148.667 320.865 148.645C321.115 148.622 321.337 148.51 321.53 148.309C321.727 148.112 321.907 147.792 322.07 147.349L322.32 146.667L319.092 137.895H320.547L322.956 144.849H323.047L325.456 137.895H326.911L323.206 147.895C323.039 148.345 322.833 148.718 322.587 149.014C322.34 149.313 322.054 149.535 321.729 149.679C321.407 149.823 321.043 149.895 320.638 149.895ZM334.067 137.895V139.145H330.021V146.622H328.68V137.895H334.067ZM338.139 146.826C337.586 146.826 337.084 146.722 336.634 146.514C336.183 146.302 335.825 145.997 335.56 145.599C335.295 145.198 335.162 144.713 335.162 144.145C335.162 143.645 335.26 143.239 335.457 142.929C335.654 142.614 335.918 142.368 336.247 142.19C336.577 142.012 336.94 141.879 337.338 141.792C337.74 141.701 338.143 141.629 338.548 141.576C339.079 141.508 339.509 141.457 339.838 141.423C340.171 141.385 340.414 141.323 340.565 141.235C340.721 141.148 340.798 140.997 340.798 140.781V140.735C340.798 140.175 340.645 139.739 340.338 139.429C340.035 139.118 339.575 138.963 338.957 138.963C338.317 138.963 337.815 139.103 337.452 139.383C337.088 139.663 336.832 139.963 336.685 140.281L335.412 139.826C335.639 139.296 335.942 138.883 336.321 138.588C336.704 138.288 337.12 138.08 337.571 137.963C338.026 137.841 338.473 137.781 338.912 137.781C339.192 137.781 339.514 137.815 339.878 137.883C340.245 137.948 340.599 138.082 340.94 138.287C341.285 138.491 341.571 138.8 341.798 139.213C342.026 139.626 342.139 140.179 342.139 140.872V146.622H340.798V145.44H340.73C340.639 145.629 340.488 145.832 340.276 146.048C340.063 146.264 339.781 146.448 339.429 146.599C339.077 146.751 338.647 146.826 338.139 146.826ZM338.344 145.622C338.874 145.622 339.321 145.518 339.685 145.309C340.052 145.101 340.329 144.832 340.514 144.502C340.704 144.173 340.798 143.826 340.798 143.463V142.235C340.741 142.304 340.616 142.366 340.423 142.423C340.234 142.476 340.014 142.523 339.764 142.565C339.518 142.603 339.277 142.637 339.043 142.667C338.812 142.694 338.624 142.716 338.48 142.735C338.132 142.781 337.806 142.855 337.503 142.957C337.204 143.056 336.961 143.205 336.776 143.406C336.594 143.603 336.503 143.872 336.503 144.213C336.503 144.679 336.675 145.031 337.02 145.27C337.368 145.504 337.81 145.622 338.344 145.622ZM347.155 146.826C346.602 146.826 346.1 146.722 345.649 146.514C345.198 146.302 344.84 145.997 344.575 145.599C344.31 145.198 344.178 144.713 344.178 144.145C344.178 143.645 344.276 143.239 344.473 142.929C344.67 142.614 344.933 142.368 345.263 142.19C345.592 142.012 345.956 141.879 346.354 141.792C346.755 141.701 347.159 141.629 347.564 141.576C348.094 141.508 348.524 141.457 348.854 141.423C349.187 141.385 349.429 141.323 349.581 141.235C349.736 141.148 349.814 140.997 349.814 140.781V140.735C349.814 140.175 349.661 139.739 349.354 139.429C349.051 139.118 348.59 138.963 347.973 138.963C347.333 138.963 346.831 139.103 346.467 139.383C346.104 139.663 345.848 139.963 345.7 140.281L344.428 139.826C344.655 139.296 344.958 138.883 345.337 138.588C345.719 138.288 346.136 138.08 346.587 137.963C347.041 137.841 347.488 137.781 347.928 137.781C348.208 137.781 348.53 137.815 348.893 137.883C349.261 137.948 349.615 138.082 349.956 138.287C350.301 138.491 350.587 138.8 350.814 139.213C351.041 139.626 351.155 140.179 351.155 140.872V146.622H349.814V145.44H349.746C349.655 145.629 349.503 145.832 349.291 146.048C349.079 146.264 348.797 146.448 348.445 146.599C348.092 146.751 347.662 146.826 347.155 146.826ZM347.359 145.622C347.89 145.622 348.337 145.518 348.7 145.309C349.068 145.101 349.344 144.832 349.53 144.502C349.719 144.173 349.814 143.826 349.814 143.463V142.235C349.757 142.304 349.632 142.366 349.439 142.423C349.25 142.476 349.03 142.523 348.78 142.565C348.534 142.603 348.293 142.637 348.058 142.667C347.827 142.694 347.64 142.716 347.496 142.735C347.147 142.781 346.821 142.855 346.518 142.957C346.219 143.056 345.977 143.205 345.791 143.406C345.609 143.603 345.518 143.872 345.518 144.213C345.518 144.679 345.691 145.031 346.036 145.27C346.384 145.504 346.825 145.622 347.359 145.622ZM353.602 149.895V137.895H354.898V139.281H355.057C355.155 139.129 355.292 138.936 355.466 138.701C355.644 138.463 355.898 138.251 356.227 138.065C356.561 137.876 357.011 137.781 357.58 137.781C358.314 137.781 358.962 137.965 359.523 138.332C360.083 138.699 360.521 139.22 360.835 139.895C361.15 140.569 361.307 141.364 361.307 142.281C361.307 143.205 361.15 144.006 360.835 144.684C360.521 145.359 360.085 145.881 359.528 146.252C358.972 146.62 358.33 146.804 357.602 146.804C357.042 146.804 356.593 146.711 356.256 146.525C355.919 146.336 355.659 146.122 355.477 145.883C355.295 145.641 355.155 145.44 355.057 145.281H354.943V149.895H353.602ZM354.92 142.258C354.92 142.917 355.017 143.499 355.21 144.002C355.403 144.502 355.686 144.895 356.057 145.179C356.428 145.459 356.883 145.599 357.42 145.599C357.981 145.599 358.449 145.451 358.824 145.156C359.203 144.857 359.487 144.455 359.676 143.951C359.869 143.444 359.966 142.879 359.966 142.258C359.966 141.645 359.871 141.091 359.682 140.599C359.496 140.103 359.214 139.711 358.835 139.423C358.46 139.131 357.989 138.985 357.42 138.985C356.875 138.985 356.417 139.124 356.045 139.4C355.674 139.673 355.394 140.056 355.205 140.548C355.015 141.037 354.92 141.607 354.92 142.258Z" fill="#AFADB5"/>
<rect x="89.5" y="117.622" width="431" height="47" rx="4.5" stroke="#D9D9D9"/>
<rect x="89.5" y="181.622" width="431" height="47" rx="4.5" fill="white"/>
<g clip-path="url(#clip0_134_1413)">
<path d="M119.833 204.288H108.167C107.246 204.288 106.5 205.035 106.5 205.955V211.788C106.5 212.709 107.246 213.455 108.167 213.455H119.833C120.754 213.455 121.5 212.709 121.5 211.788V205.955C121.5 205.035 120.754 204.288 119.833 204.288Z" stroke="#AFADB5" stroke-width="2" stroke-linecap="round" stroke-linejoin="round"/>
<path d="M109.833 204.288V200.955C109.832 199.922 110.215 198.925 110.908 198.158C111.6 197.391 112.553 196.909 113.581 196.805C114.609 196.702 115.639 196.983 116.471 197.596C117.303 198.209 117.878 199.109 118.083 200.122" stroke="#AFADB5" stroke-width="2" stroke-linecap="round" stroke-linejoin="round"/>
</g>
<path d="M135.409 210.122V198.485H136.818V203.667H143.023V198.485H144.432V210.122H143.023V204.917H136.818V210.122H135.409ZM147.935 213.395C147.707 213.395 147.505 213.376 147.327 213.338C147.149 213.304 147.026 213.27 146.957 213.235L147.298 212.054C147.624 212.137 147.912 212.167 148.162 212.145C148.412 212.122 148.634 212.01 148.827 211.809C149.024 211.612 149.204 211.292 149.366 210.849L149.616 210.167L146.389 201.395H147.844L150.253 208.349H150.344L152.753 201.395H154.207L150.503 211.395C150.336 211.845 150.13 212.218 149.884 212.514C149.637 212.813 149.351 213.035 149.026 213.179C148.704 213.323 148.34 213.395 147.935 213.395ZM156.841 213.395C156.614 213.395 156.411 213.376 156.233 213.338C156.055 213.304 155.932 213.27 155.864 213.235L156.205 212.054C156.53 212.137 156.818 212.167 157.068 212.145C157.318 212.122 157.54 212.01 157.733 211.809C157.93 211.612 158.11 211.292 158.273 210.849L158.523 210.167L155.295 201.395H156.75L159.159 208.349H159.25L161.659 201.395H163.114L159.409 211.395C159.242 211.845 159.036 212.218 158.79 212.514C158.544 212.813 158.258 213.035 157.932 213.179C157.61 213.323 157.246 213.395 156.841 213.395ZM171.747 201.395V208.872H172.974V212.94H171.634V210.122H164.884V201.395H166.224V208.872H170.406V201.395H171.747ZM178.858 201.395H180.312L182.608 208.031L184.858 201.395H186.312L183.267 209.94V213.395H181.926V209.94L178.858 201.395ZM193.473 201.395V202.645H189.428V210.122H188.087V201.395H193.473Z" fill="#AFADB5"/>
<path d="M501 197.622C506.523 197.622 509.333 200.955 511 205.122L510.814 205.573C509.125 209.526 506.322 212.622 501 212.622C495.477 212.622 492.667 209.288 491 205.122C492.667 200.955 495.477 197.622 501 197.622ZM501 199.288C497.079 199.288 494.609 201.161 492.895 204.925L492.807 205.122L492.895 205.318C494.569 208.995 496.964 210.867 500.729 210.952L501 210.955C504.921 210.955 507.391 209.083 509.105 205.318L509.192 205.122L509.105 204.925C507.431 201.248 505.036 199.377 501.271 199.292L501 199.288ZM501 200.955C503.301 200.955 505.167 202.821 505.167 205.122C505.167 207.423 503.301 209.288 501 209.288C498.699 209.288 496.833 207.423 496.833 205.122C496.833 202.821 498.699 200.955 501 200.955ZM501 202.622C499.619 202.622 498.5 203.741 498.5 205.122C498.5 206.503 499.619 207.622 501 207.622C502.381 207.622 503.5 206.503 503.5 205.122C503.5 203.741 502.381 202.622 501 202.622Z" fill="#AFADB5"/>
<rect x="89.5" y="181.622" width="431" height="47" rx="4.5" stroke="#D9D9D9"/>
<path d="M342.448 253.122V241.485H343.857V246.667H350.062V241.485H351.471V253.122H350.062V247.917H343.857V253.122H342.448ZM354.974 256.395C354.746 256.395 354.544 256.376 354.366 256.338C354.188 256.304 354.065 256.27 353.996 256.235L354.337 255.054C354.663 255.137 354.951 255.167 355.201 255.145C355.451 255.122 355.673 255.01 355.866 254.809C356.063 254.612 356.243 254.292 356.406 253.849L356.656 253.167L353.428 244.395H354.883L357.292 251.349H357.383L359.792 244.395H361.246L357.542 254.395C357.375 254.845 357.169 255.218 356.923 255.514C356.676 255.813 356.39 256.035 356.065 256.179C355.743 256.323 355.379 256.395 354.974 256.395ZM363.88 256.395C363.653 256.395 363.45 256.376 363.272 256.338C363.094 256.304 362.971 256.27 362.903 256.235L363.244 255.054C363.569 255.137 363.857 255.167 364.107 255.145C364.357 255.122 364.579 255.01 364.772 254.809C364.969 254.612 365.149 254.292 365.312 253.849L365.562 253.167L362.335 244.395H363.789L366.198 251.349H366.289L368.698 244.395H370.153L366.448 254.395C366.281 254.845 366.075 255.218 365.829 255.514C365.583 255.813 365.297 256.035 364.971 256.179C364.649 256.323 364.285 256.395 363.88 256.395ZM378.786 244.395V251.872H380.013V255.94H378.673V253.122H371.923V244.395H373.263V251.872H377.445V244.395H378.786ZM385.897 244.395H387.352L389.647 251.031L391.897 244.395H393.352L390.306 252.94V256.395H388.965V252.94L385.897 244.395ZM400.512 244.395V245.645H396.467V253.122H395.126V244.395H400.512ZM405.356 245.531C405.053 245.535 404.748 245.612 404.441 245.764C404.138 245.915 403.884 246.116 403.68 246.366C403.479 246.612 403.379 246.887 403.379 247.19H402.06C402.06 246.811 402.151 246.448 402.333 246.099C402.515 245.751 402.759 245.44 403.066 245.167C403.377 244.895 403.729 244.679 404.123 244.52C404.521 244.36 404.932 244.281 405.356 244.281C406.151 244.281 406.826 244.482 407.379 244.883C407.935 245.285 408.358 245.815 408.646 246.474C408.937 247.133 409.083 247.849 409.083 248.622V248.94C409.083 249.709 408.937 250.425 408.646 251.088C408.358 251.747 407.935 252.277 407.379 252.679C406.826 253.08 406.151 253.281 405.356 253.281C404.719 253.281 404.153 253.141 403.657 252.86C403.161 252.576 402.771 252.198 402.487 251.724C402.202 251.251 402.06 250.724 402.06 250.145H403.379C403.379 250.474 403.471 250.783 403.657 251.071C403.846 251.355 404.091 251.586 404.39 251.764C404.693 251.938 405.015 252.027 405.356 252.031C405.863 252.027 406.295 251.868 406.651 251.554C407.007 251.239 407.278 250.845 407.464 250.372C407.649 249.898 407.742 249.421 407.742 248.94V248.622C407.742 248.129 407.649 247.648 407.464 247.179C407.282 246.705 407.013 246.313 406.657 246.002C406.305 245.692 405.871 245.535 405.356 245.531ZM408.288 248.099V249.349H404.469V248.099H408.288ZM414.012 245.531C413.709 245.535 413.404 245.612 413.097 245.764C412.794 245.915 412.54 246.116 412.336 246.366C412.135 246.612 412.035 246.887 412.035 247.19H410.717C410.717 246.811 410.808 246.448 410.989 246.099C411.171 245.751 411.415 245.44 411.722 245.167C412.033 244.895 412.385 244.679 412.779 244.52C413.177 244.36 413.588 244.281 414.012 244.281C414.808 244.281 415.482 244.482 416.035 244.883C416.592 245.285 417.014 245.815 417.302 246.474C417.594 247.133 417.739 247.849 417.739 248.622V248.94C417.739 249.709 417.594 250.425 417.302 251.088C417.014 251.747 416.592 252.277 416.035 252.679C415.482 253.08 414.808 253.281 414.012 253.281C413.376 253.281 412.809 253.141 412.313 252.86C411.817 252.576 411.427 252.198 411.143 251.724C410.859 251.251 410.717 250.724 410.717 250.145H412.035C412.035 250.474 412.128 250.783 412.313 251.071C412.503 251.355 412.747 251.586 413.046 251.764C413.349 251.938 413.671 252.027 414.012 252.031C414.52 252.027 414.951 251.868 415.308 251.554C415.664 251.239 415.934 250.845 416.12 250.372C416.306 249.898 416.398 249.421 416.398 248.94V248.622C416.398 248.129 416.306 247.648 416.12 247.179C415.938 246.705 415.669 246.313 415.313 246.002C414.961 245.692 414.527 245.535 414.012 245.531ZM416.944 248.099V249.349H413.126V248.099H416.944ZM429.055 251.304L432.1 244.395H433.373L429.6 253.122H428.509L424.805 244.395H426.055L429.055 251.304ZM425.623 244.395V253.122H424.282V244.395H425.623ZM432.487 253.122V244.395H433.827V253.122H432.487ZM438.85 253.326C438.297 253.326 437.795 253.222 437.344 253.014C436.894 252.802 436.536 252.497 436.271 252.099C436.005 251.698 435.873 251.213 435.873 250.645C435.873 250.145 435.971 249.739 436.168 249.429C436.365 249.114 436.629 248.868 436.958 248.69C437.288 248.512 437.651 248.379 438.049 248.292C438.451 248.201 438.854 248.129 439.259 248.076C439.79 248.008 440.219 247.957 440.549 247.923C440.882 247.885 441.125 247.823 441.276 247.735C441.432 247.648 441.509 247.497 441.509 247.281V247.235C441.509 246.675 441.356 246.239 441.049 245.929C440.746 245.618 440.286 245.463 439.668 245.463C439.028 245.463 438.526 245.603 438.163 245.883C437.799 246.163 437.543 246.463 437.396 246.781L436.123 246.326C436.35 245.796 436.653 245.383 437.032 245.088C437.415 244.788 437.831 244.58 438.282 244.463C438.737 244.341 439.183 244.281 439.623 244.281C439.903 244.281 440.225 244.315 440.589 244.383C440.956 244.448 441.31 244.582 441.651 244.787C441.996 244.991 442.282 245.3 442.509 245.713C442.737 246.126 442.85 246.679 442.85 247.372V253.122H441.509V251.94H441.441C441.35 252.129 441.199 252.332 440.987 252.548C440.774 252.764 440.492 252.948 440.14 253.099C439.788 253.251 439.358 253.326 438.85 253.326ZM439.055 252.122C439.585 252.122 440.032 252.018 440.396 251.809C440.763 251.601 441.04 251.332 441.225 251.002C441.415 250.673 441.509 250.326 441.509 249.963V248.735C441.452 248.804 441.327 248.866 441.134 248.923C440.945 248.976 440.725 249.023 440.475 249.065C440.229 249.103 439.988 249.137 439.754 249.167C439.522 249.194 439.335 249.216 439.191 249.235C438.843 249.281 438.517 249.355 438.214 249.457C437.915 249.556 437.672 249.705 437.487 249.906C437.305 250.103 437.214 250.372 437.214 250.713C437.214 251.179 437.386 251.531 437.731 251.77C438.079 252.004 438.521 252.122 439.055 252.122ZM445.298 256.395V244.395H446.593V245.781H446.752C446.851 245.629 446.987 245.436 447.161 245.201C447.339 244.963 447.593 244.751 447.923 244.565C448.256 244.376 448.707 244.281 449.275 244.281C450.01 244.281 450.657 244.465 451.218 244.832C451.779 245.199 452.216 245.72 452.531 246.395C452.845 247.069 453.002 247.864 453.002 248.781C453.002 249.705 452.845 250.506 452.531 251.184C452.216 251.859 451.781 252.381 451.224 252.752C450.667 253.12 450.025 253.304 449.298 253.304C448.737 253.304 448.288 253.211 447.951 253.025C447.614 252.836 447.354 252.622 447.173 252.383C446.991 252.141 446.851 251.94 446.752 251.781H446.638V256.395H445.298ZM446.616 248.758C446.616 249.417 446.712 249.999 446.906 250.502C447.099 251.002 447.381 251.395 447.752 251.679C448.123 251.959 448.578 252.099 449.116 252.099C449.676 252.099 450.144 251.951 450.519 251.656C450.898 251.357 451.182 250.955 451.371 250.451C451.565 249.944 451.661 249.379 451.661 248.758C451.661 248.145 451.567 247.591 451.377 247.099C451.192 246.603 450.909 246.211 450.531 245.923C450.156 245.631 449.684 245.485 449.116 245.485C448.57 245.485 448.112 245.624 447.741 245.9C447.37 246.173 447.089 246.556 446.9 247.048C446.71 247.537 446.616 248.107 446.616 248.758ZM453.907 245.645V244.395H460.998V245.645H458.134V253.122H456.793V245.645H453.907ZM466.046 253.304C465.228 253.304 464.523 253.11 463.933 252.724C463.342 252.338 462.887 251.806 462.569 251.127C462.251 250.449 462.092 249.675 462.092 248.804C462.092 247.917 462.254 247.135 462.58 246.457C462.91 245.775 463.368 245.243 463.955 244.86C464.546 244.474 465.236 244.281 466.023 244.281C466.637 244.281 467.19 244.395 467.683 244.622C468.175 244.849 468.578 245.167 468.893 245.576C469.207 245.985 469.402 246.463 469.478 247.008H468.137C468.035 246.61 467.808 246.258 467.455 245.951C467.107 245.641 466.637 245.485 466.046 245.485C465.523 245.485 465.065 245.622 464.671 245.895C464.281 246.163 463.976 246.544 463.756 247.037C463.54 247.525 463.433 248.099 463.433 248.758C463.433 249.432 463.539 250.02 463.751 250.52C463.967 251.02 464.27 251.408 464.66 251.684C465.054 251.961 465.516 252.099 466.046 252.099C466.395 252.099 466.711 252.038 466.995 251.917C467.279 251.796 467.52 251.622 467.717 251.395C467.914 251.167 468.054 250.895 468.137 250.576H469.478C469.402 251.091 469.215 251.556 468.915 251.968C468.62 252.377 468.228 252.703 467.739 252.946C467.254 253.184 466.69 253.304 466.046 253.304ZM474.006 253.326C473.453 253.326 472.951 253.222 472.501 253.014C472.05 252.802 471.692 252.497 471.427 252.099C471.162 251.698 471.029 251.213 471.029 250.645C471.029 250.145 471.128 249.739 471.325 249.429C471.522 249.114 471.785 248.868 472.114 248.69C472.444 248.512 472.808 248.379 473.205 248.292C473.607 248.201 474.01 248.129 474.415 248.076C474.946 248.008 475.376 247.957 475.705 247.923C476.039 247.885 476.281 247.823 476.433 247.735C476.588 247.648 476.665 247.497 476.665 247.281V247.235C476.665 246.675 476.512 246.239 476.205 245.929C475.902 245.618 475.442 245.463 474.825 245.463C474.184 245.463 473.683 245.603 473.319 245.883C472.955 246.163 472.7 246.463 472.552 246.781L471.279 246.326C471.506 245.796 471.809 245.383 472.188 245.088C472.571 244.788 472.987 244.58 473.438 244.463C473.893 244.341 474.34 244.281 474.779 244.281C475.059 244.281 475.381 244.315 475.745 244.383C476.112 244.448 476.467 244.582 476.808 244.787C477.152 244.991 477.438 245.3 477.665 245.713C477.893 246.126 478.006 246.679 478.006 247.372V253.122H476.665V251.94H476.597C476.506 252.129 476.355 252.332 476.143 252.548C475.931 252.764 475.648 252.948 475.296 253.099C474.944 253.251 474.514 253.326 474.006 253.326ZM474.211 252.122C474.741 252.122 475.188 252.018 475.552 251.809C475.919 251.601 476.196 251.332 476.381 251.002C476.571 250.673 476.665 250.326 476.665 249.963V248.735C476.609 248.804 476.484 248.866 476.29 248.923C476.101 248.976 475.881 249.023 475.631 249.065C475.385 249.103 475.145 249.137 474.91 249.167C474.679 249.194 474.491 249.216 474.347 249.235C473.999 249.281 473.673 249.355 473.37 249.457C473.071 249.556 472.828 249.705 472.643 249.906C472.461 250.103 472.37 250.372 472.37 250.713C472.37 251.179 472.542 251.531 472.887 251.77C473.236 252.004 473.677 252.122 474.211 252.122ZM486.295 248.145V249.395H481.477V248.145H486.295ZM481.795 244.395V253.122H480.454V244.395H481.795ZM487.317 244.395V253.122H485.977V244.395H487.317ZM495.13 256.395C494.903 256.395 494.7 256.376 494.522 256.338C494.344 256.304 494.221 256.27 494.153 256.235L494.494 255.054C494.819 255.137 495.107 255.167 495.357 255.145C495.607 255.122 495.829 255.01 496.022 254.809C496.219 254.612 496.399 254.292 496.562 253.849L496.812 253.167L493.585 244.395H495.039L497.448 251.349H497.539L499.948 244.395H501.403L497.698 254.395C497.531 254.845 497.325 255.218 497.079 255.514C496.833 255.813 496.547 256.035 496.221 256.179C495.899 256.323 495.535 256.395 495.13 256.395ZM504.036 256.395C503.809 256.395 503.606 256.376 503.428 256.338C503.25 256.304 503.127 256.27 503.059 256.235L503.4 255.054C503.726 255.137 504.013 255.167 504.263 255.145C504.513 255.122 504.735 255.01 504.928 254.809C505.125 254.612 505.305 254.292 505.468 253.849L505.718 253.167L502.491 244.395H503.945L506.354 251.349H506.445L508.854 244.395H510.309L506.604 254.395C506.438 254.845 506.231 255.218 505.985 255.514C505.739 255.813 505.453 256.035 505.127 256.179C504.805 256.323 504.442 256.395 504.036 256.395ZM513.829 249.849V249.781C513.836 249.057 513.912 248.482 514.056 248.054C514.2 247.626 514.405 247.279 514.67 247.014C514.935 246.749 515.253 246.504 515.624 246.281C515.848 246.145 516.049 245.984 516.227 245.798C516.405 245.609 516.545 245.391 516.647 245.145C516.753 244.898 516.806 244.626 516.806 244.326C516.806 243.955 516.719 243.633 516.545 243.36C516.371 243.088 516.138 242.877 515.846 242.73C515.554 242.582 515.23 242.508 514.874 242.508C514.564 242.508 514.264 242.573 513.977 242.701C513.689 242.83 513.448 243.033 513.255 243.309C513.062 243.586 512.95 243.948 512.92 244.395H511.488C511.518 243.751 511.685 243.199 511.988 242.741C512.295 242.283 512.698 241.932 513.198 241.69C513.702 241.448 514.261 241.326 514.874 241.326C515.541 241.326 516.121 241.459 516.613 241.724C517.109 241.989 517.492 242.353 517.761 242.815C518.033 243.277 518.17 243.804 518.17 244.395C518.17 244.811 518.105 245.188 517.977 245.525C517.852 245.862 517.67 246.163 517.431 246.429C517.196 246.694 516.912 246.929 516.579 247.133C516.246 247.341 515.978 247.561 515.778 247.792C515.577 248.02 515.431 248.29 515.34 248.605C515.249 248.919 515.2 249.311 515.192 249.781V249.849H513.829ZM514.556 253.213C514.276 253.213 514.035 253.112 513.835 252.912C513.634 252.711 513.533 252.47 513.533 252.19C513.533 251.91 513.634 251.669 513.835 251.468C514.035 251.268 514.276 251.167 514.556 251.167C514.836 251.167 515.077 251.268 515.278 251.468C515.478 251.669 515.579 251.91 515.579 252.19C515.579 252.376 515.531 252.546 515.437 252.701C515.346 252.857 515.223 252.982 515.067 253.076C514.916 253.167 514.746 253.213 514.556 253.213Z" fill="#AFADB5"/>
<path d="M341.039 256.304H518.965V257.395H341.039V256.304Z" fill="#AFADB5"/>
<rect x="89" y="275.122" width="432" height="48" rx="5" fill="white"/>
<rect x="89" y="275.122" width="432" height="48" rx="5" fill="#003585"/>
<path d="M268.565 306.122V293.031H271.332V298.432H276.951V293.031H279.712V306.122H276.951V300.714H271.332V306.122H268.565ZM285.574 298.336C285.267 298.336 284.994 298.396 284.756 298.515C284.517 298.635 284.329 298.801 284.193 299.014C284.061 299.223 283.995 299.47 283.995 299.755H281.547C281.547 299.223 281.649 298.737 281.854 298.298C282.058 297.855 282.344 297.473 282.71 297.154C283.077 296.83 283.503 296.581 283.989 296.406C284.479 296.231 285.007 296.144 285.574 296.144C286.562 296.144 287.393 296.365 288.067 296.809C288.744 297.248 289.256 297.842 289.601 298.592C289.95 299.338 290.125 300.175 290.125 301.104V301.341C290.125 302.274 289.952 303.115 289.607 303.865C289.262 304.615 288.751 305.21 288.073 305.649C287.4 306.083 286.567 306.301 285.574 306.301C284.781 306.301 284.082 306.145 283.477 305.834C282.872 305.519 282.399 305.074 282.058 304.498C281.717 303.919 281.547 303.23 281.547 302.434H283.995C283.995 302.736 284.059 303.013 284.187 303.265C284.315 303.516 284.496 303.716 284.73 303.865C284.969 304.015 285.25 304.091 285.574 304.096C286.081 304.091 286.475 303.949 286.756 303.667C287.042 303.386 287.24 303.034 287.351 302.613C287.466 302.186 287.523 301.762 287.523 301.341V301.104C287.523 300.64 287.464 300.196 287.344 299.774C287.229 299.353 287.029 299.007 286.744 298.739C286.462 298.471 286.072 298.336 285.574 298.336ZM288.31 300.407V302.018H284.839V300.407H288.31ZM291.91 306.122V296.304H296.097C297.307 296.304 298.264 296.534 298.967 296.994C299.67 297.454 300.021 298.108 300.021 298.956C300.021 299.489 299.823 299.932 299.427 300.286C299.031 300.64 298.481 300.878 297.778 301.002C298.366 301.044 298.867 301.179 299.28 301.404C299.698 301.626 300.015 301.914 300.232 302.267C300.454 302.621 300.565 303.013 300.565 303.444C300.565 304.002 300.416 304.481 300.117 304.882C299.823 305.282 299.391 305.589 298.82 305.802C298.253 306.015 297.56 306.122 296.742 306.122H291.91ZM294.448 304.083H296.742C297.122 304.083 297.418 303.993 297.631 303.814C297.848 303.631 297.957 303.382 297.957 303.066C297.957 302.717 297.848 302.442 297.631 302.242C297.418 302.042 297.122 301.941 296.742 301.941H294.448V304.083ZM294.448 300.343H296.154C296.427 300.343 296.659 300.305 296.851 300.228C297.047 300.147 297.196 300.032 297.298 299.883C297.405 299.734 297.458 299.557 297.458 299.353C297.458 299.05 297.337 298.814 297.094 298.643C296.851 298.473 296.519 298.387 296.097 298.387H294.448V300.343ZM301.77 298.445V296.304H310.667V298.445H307.503V306.122H304.908V298.445H301.77ZM312.318 309.804V296.304H315.003V297.953H315.124C315.244 297.689 315.416 297.42 315.642 297.147C315.872 296.87 316.17 296.64 316.537 296.457C316.908 296.27 317.368 296.176 317.918 296.176C318.633 296.176 319.294 296.363 319.899 296.738C320.504 297.109 320.988 297.669 321.35 298.419C321.712 299.165 321.893 300.1 321.893 301.225C321.893 302.321 321.717 303.245 321.363 304C321.013 304.75 320.536 305.319 319.931 305.706C319.33 306.09 318.657 306.282 317.911 306.282C317.383 306.282 316.933 306.194 316.562 306.02C316.196 305.845 315.896 305.625 315.661 305.361C315.427 305.093 315.248 304.822 315.124 304.549H315.041V309.804H312.318ZM314.984 301.213C314.984 301.797 315.065 302.306 315.226 302.74C315.388 303.175 315.623 303.514 315.93 303.757C316.236 303.995 316.609 304.115 317.048 304.115C317.491 304.115 317.866 303.993 318.173 303.75C318.48 303.503 318.712 303.162 318.87 302.728C319.032 302.289 319.113 301.784 319.113 301.213C319.113 300.646 319.034 300.147 318.876 299.717C318.719 299.287 318.486 298.95 318.18 298.707C317.873 298.464 317.496 298.343 317.048 298.343C316.605 298.343 316.23 298.46 315.923 298.694C315.621 298.929 315.388 299.261 315.226 299.691C315.065 300.122 314.984 300.629 314.984 301.213ZM327.339 298.336C327.033 298.336 326.76 298.396 326.521 298.515C326.283 298.635 326.095 298.801 325.959 299.014C325.827 299.223 325.761 299.47 325.761 299.755H323.312C323.312 299.223 323.415 298.737 323.619 298.298C323.824 297.855 324.109 297.473 324.476 297.154C324.842 296.83 325.268 296.581 325.754 296.406C326.244 296.231 326.773 296.144 327.339 296.144C328.328 296.144 329.159 296.365 329.832 296.809C330.51 297.248 331.021 297.842 331.366 298.592C331.716 299.338 331.891 300.175 331.891 301.104V301.341C331.891 302.274 331.718 303.115 331.373 303.865C331.028 304.615 330.516 305.21 329.839 305.649C329.165 306.083 328.332 306.301 327.339 306.301C326.547 306.301 325.848 306.145 325.243 305.834C324.638 305.519 324.165 305.074 323.824 304.498C323.483 303.919 323.312 303.23 323.312 302.434H325.761C325.761 302.736 325.824 303.013 325.952 303.265C326.08 303.516 326.261 303.716 326.496 303.865C326.734 304.015 327.016 304.091 327.339 304.096C327.847 304.091 328.241 303.949 328.522 303.667C328.807 303.386 329.006 303.034 329.116 302.613C329.231 302.186 329.289 301.762 329.289 301.341V301.104C329.289 300.64 329.229 300.196 329.11 299.774C328.995 299.353 328.795 299.007 328.509 298.739C328.228 298.471 327.838 298.336 327.339 298.336ZM330.075 300.407V302.018H326.604V300.407H330.075ZM335.6 296.304L337.402 299.736L339.249 296.304H342.043L339.198 301.213L342.119 306.122H339.339L337.402 302.728L335.497 306.122H332.685L335.6 301.213L332.787 296.304H335.6Z" fill="white"/>
<line x1="89.5" y1="362.622" x2="269.5" y2="362.622" stroke="#D9D9D9"/>
<path d="M286.778 361.531C286.475 361.535 286.17 361.612 285.863 361.764C285.56 361.915 285.306 362.116 285.102 362.366C284.901 362.612 284.8 362.887 284.8 363.19H283.482C283.482 362.811 283.573 362.448 283.755 362.099C283.937 361.751 284.181 361.44 284.488 361.167C284.799 360.895 285.151 360.679 285.545 360.52C285.942 360.36 286.353 360.281 286.778 360.281C287.573 360.281 288.247 360.482 288.8 360.883C289.357 361.285 289.78 361.815 290.067 362.474C290.359 363.133 290.505 363.849 290.505 364.622V364.94C290.505 365.709 290.359 366.425 290.067 367.088C289.78 367.747 289.357 368.277 288.8 368.679C288.247 369.08 287.573 369.281 286.778 369.281C286.141 369.281 285.575 369.141 285.079 368.86C284.583 368.576 284.192 368.198 283.908 367.724C283.624 367.251 283.482 366.724 283.482 366.145H284.8C284.8 366.474 284.893 366.783 285.079 367.071C285.268 367.355 285.513 367.586 285.812 367.764C286.115 367.938 286.437 368.027 286.778 368.031C287.285 368.027 287.717 367.868 288.073 367.554C288.429 367.239 288.7 366.845 288.886 366.372C289.071 365.898 289.164 365.421 289.164 364.94V364.622C289.164 364.129 289.071 363.648 288.886 363.179C288.704 362.705 288.435 362.313 288.079 362.002C287.727 361.692 287.293 361.535 286.778 361.531ZM289.71 364.099V365.349H285.891V364.099H289.71ZM296.093 369.304C295.275 369.304 294.57 369.11 293.979 368.724C293.388 368.338 292.934 367.806 292.616 367.127C292.298 366.449 292.138 365.675 292.138 364.804C292.138 363.917 292.301 363.135 292.627 362.457C292.957 361.775 293.415 361.243 294.002 360.86C294.593 360.474 295.282 360.281 296.07 360.281C296.684 360.281 297.237 360.395 297.729 360.622C298.222 360.849 298.625 361.167 298.94 361.576C299.254 361.985 299.449 362.463 299.525 363.008H298.184C298.082 362.61 297.854 362.258 297.502 361.951C297.154 361.641 296.684 361.485 296.093 361.485C295.57 361.485 295.112 361.622 294.718 361.895C294.328 362.163 294.023 362.544 293.803 363.037C293.587 363.525 293.479 364.099 293.479 364.758C293.479 365.432 293.585 366.02 293.798 366.52C294.013 367.02 294.317 367.408 294.707 367.684C295.101 367.961 295.563 368.099 296.093 368.099C296.442 368.099 296.758 368.038 297.042 367.917C297.326 367.796 297.567 367.622 297.763 367.395C297.96 367.167 298.101 366.895 298.184 366.576H299.525C299.449 367.091 299.262 367.556 298.962 367.968C298.667 368.377 298.275 368.703 297.786 368.946C297.301 369.184 296.737 369.304 296.093 369.304ZM301.485 369.122V360.395H305.053C305.993 360.395 306.739 360.607 307.292 361.031C307.845 361.455 308.121 362.016 308.121 362.713C308.121 363.243 307.964 363.654 307.65 363.946C307.335 364.234 306.932 364.429 306.44 364.531C306.762 364.576 307.074 364.69 307.377 364.872C307.684 365.054 307.938 365.304 308.138 365.622C308.339 365.936 308.44 366.323 308.44 366.781C308.44 367.228 308.326 367.627 308.099 367.98C307.871 368.332 307.546 368.61 307.121 368.815C306.697 369.02 306.19 369.122 305.599 369.122H301.485ZM302.758 367.895H305.599C306.061 367.895 306.423 367.785 306.684 367.565C306.945 367.345 307.076 367.046 307.076 366.667C307.076 366.216 306.945 365.862 306.684 365.605C306.423 365.343 306.061 365.213 305.599 365.213H302.758V367.895ZM302.758 364.054H305.053C305.413 364.054 305.722 364.004 305.979 363.906C306.237 363.804 306.434 363.66 306.57 363.474C306.71 363.285 306.781 363.061 306.781 362.804C306.781 362.436 306.627 362.148 306.32 361.94C306.013 361.728 305.591 361.622 305.053 361.622H302.758V364.054ZM313.356 361.531C313.053 361.535 312.748 361.612 312.441 361.764C312.138 361.915 311.884 362.116 311.68 362.366C311.479 362.612 311.379 362.887 311.379 363.19H310.06C310.06 362.811 310.151 362.448 310.333 362.099C310.515 361.751 310.759 361.44 311.066 361.167C311.377 360.895 311.729 360.679 312.123 360.52C312.521 360.36 312.932 360.281 313.356 360.281C314.151 360.281 314.826 360.482 315.379 360.883C315.935 361.285 316.358 361.815 316.646 362.474C316.937 363.133 317.083 363.849 317.083 364.622V364.94C317.083 365.709 316.937 366.425 316.646 367.088C316.358 367.747 315.935 368.277 315.379 368.679C314.826 369.08 314.151 369.281 313.356 369.281C312.719 369.281 312.153 369.141 311.657 368.86C311.161 368.576 310.771 368.198 310.487 367.724C310.202 367.251 310.06 366.724 310.06 366.145H311.379C311.379 366.474 311.471 366.783 311.657 367.071C311.846 367.355 312.091 367.586 312.39 367.764C312.693 367.938 313.015 368.027 313.356 368.031C313.863 368.027 314.295 367.868 314.651 367.554C315.007 367.239 315.278 366.845 315.464 366.372C315.649 365.898 315.742 365.421 315.742 364.94V364.622C315.742 364.129 315.649 363.648 315.464 363.179C315.282 362.705 315.013 362.313 314.657 362.002C314.305 361.692 313.871 361.535 313.356 361.531ZM316.288 364.099V365.349H312.469V364.099H316.288ZM318.353 369.122V367.872H318.671C318.933 367.872 319.15 367.821 319.325 367.718C319.499 367.612 319.639 367.429 319.745 367.167C319.855 366.902 319.938 366.535 319.995 366.065C320.056 365.591 320.099 364.989 320.126 364.258L320.285 360.395H326.103V369.122H324.762V361.645H321.558L321.421 364.758C321.391 365.474 321.326 366.105 321.228 366.65C321.133 367.192 320.987 367.646 320.79 368.014C320.597 368.381 320.34 368.658 320.018 368.843C319.696 369.029 319.292 369.122 318.808 369.122H318.353Z" fill="#8B8F94"/>
<path d="M340.5 363.122L520.5 363.122" stroke="#D9D9D9"/>
<rect x="89.5" y="339.622" width="431" height="47" rx="5.5" stroke="white" stroke-opacity="0.05"/>
<rect x="89.5" y="403.622" width="431" height="47" rx="4.5" fill="white"/>
<path d="M257.123 434.122V421.031H265.285V422.731H259.098V426.311H262.025C262.997 426.311 263.822 426.468 264.499 426.784C265.181 427.099 265.701 427.544 266.059 428.12C266.421 428.695 266.602 429.373 266.602 430.152C266.602 430.932 266.421 431.62 266.059 432.217C265.701 432.814 265.181 433.28 264.499 433.617C263.822 433.953 262.997 434.122 262.025 434.122H257.123ZM259.098 432.46H262.025C262.588 432.46 263.063 432.349 263.451 432.127C263.843 431.906 264.139 431.618 264.339 431.265C264.544 430.911 264.646 430.532 264.646 430.127C264.646 429.539 264.42 429.034 263.969 428.612C263.517 428.186 262.869 427.973 262.025 427.973H259.098V432.46ZM268.008 424.304H270.016L272.374 431.546L274.669 424.304H276.676L273.288 433.956V437.804H271.422V433.956L268.008 424.304ZM278.467 437.804V424.304H280.334V425.895H280.494C280.604 425.691 280.764 425.454 280.973 425.186C281.182 424.917 281.472 424.683 281.842 424.483C282.213 424.278 282.703 424.176 283.313 424.176C284.105 424.176 284.813 424.376 285.435 424.777C286.057 425.177 286.545 425.755 286.899 426.509C287.256 427.263 287.435 428.171 287.435 429.232C287.435 430.293 287.259 431.203 286.905 431.961C286.551 432.716 286.065 433.297 285.448 433.706C284.83 434.111 284.124 434.314 283.332 434.314C282.735 434.314 282.247 434.213 281.868 434.013C281.493 433.813 281.199 433.578 280.986 433.31C280.773 433.042 280.609 432.803 280.494 432.594H280.379V437.804H278.467ZM280.34 429.213C280.34 429.903 280.44 430.508 280.641 431.028C280.841 431.548 281.131 431.955 281.51 432.249C281.889 432.539 282.354 432.684 282.903 432.684C283.475 432.684 283.952 432.532 284.335 432.23C284.719 431.923 285.009 431.507 285.205 430.983C285.405 430.459 285.505 429.869 285.505 429.213C285.505 428.565 285.407 427.983 285.211 427.468C285.019 426.952 284.729 426.545 284.342 426.247C283.958 425.949 283.479 425.799 282.903 425.799C282.35 425.799 281.881 425.942 281.497 426.228C281.118 426.513 280.83 426.912 280.634 427.423C280.438 427.934 280.34 428.531 280.34 429.213ZM288.394 425.953V424.304H296.678V425.953H293.476V434.122H291.609V425.953H288.394ZM304.977 424.304V425.953H300.585V434.122H298.7V424.304H304.977ZM306.223 424.304H308.23L310.589 431.546L312.884 424.304H314.891L311.503 433.956V437.804H309.637V433.956L306.223 424.304ZM315.909 424.304H317.916L320.275 431.546L322.569 424.304H324.576L321.189 433.956V437.804H319.322V433.956L315.909 424.304ZM324.786 434.122L324.779 432.466H325.131C325.404 432.466 325.632 432.409 325.815 432.294C326.002 432.174 326.156 431.974 326.275 431.693C326.394 431.412 326.486 431.024 326.55 430.529C326.614 430.031 326.661 429.404 326.691 428.65L326.863 424.304H333.715V434.122H331.843V425.953H328.634L328.48 429.289C328.442 430.099 328.359 430.806 328.231 431.412C328.108 432.017 327.926 432.522 327.688 432.926C327.449 433.327 327.142 433.627 326.767 433.828C326.392 434.024 325.936 434.122 325.399 434.122H324.786ZM339.639 425.831C339.307 425.836 338.987 425.914 338.68 426.068C338.374 426.221 338.12 426.426 337.92 426.681C337.724 426.937 337.626 427.227 337.626 427.551H335.823C335.823 427.091 335.926 426.656 336.13 426.247C336.335 425.838 336.614 425.478 336.967 425.167C337.321 424.855 337.728 424.61 338.188 424.431C338.649 424.252 339.132 424.163 339.639 424.163C340.564 424.163 341.346 424.389 341.985 424.841C342.629 425.288 343.117 425.885 343.449 426.63C343.781 427.372 343.948 428.186 343.948 429.072V429.392C343.948 430.278 343.781 431.094 343.449 431.84C343.117 432.586 342.629 433.182 341.985 433.63C341.346 434.077 340.564 434.301 339.639 434.301C338.898 434.301 338.239 434.143 337.664 433.828C337.089 433.512 336.637 433.082 336.309 432.537C335.985 431.987 335.823 431.36 335.823 430.657H337.626C337.626 431.007 337.717 431.331 337.901 431.629C338.084 431.927 338.327 432.168 338.629 432.351C338.936 432.53 339.273 432.622 339.639 432.626C340.189 432.622 340.643 432.456 341.001 432.127C341.363 431.799 341.631 431.388 341.806 430.894C341.985 430.395 342.075 429.895 342.075 429.392V429.072C342.075 428.548 341.985 428.039 341.806 427.544C341.631 427.05 341.363 426.643 341.001 426.323C340.643 426 340.189 425.836 339.639 425.831ZM342.746 428.452V429.922H338.725V428.452H342.746ZM347.195 424.304L349.362 428.126L351.548 424.304H353.638L350.576 429.213L353.663 434.122H351.573L349.362 430.453L347.156 434.122H345.06L348.115 429.213L345.098 424.304H347.195Z" fill="white"/>
<path d="M257.123 434.122V421.031H265.285V422.731H259.098V426.311H262.025C262.997 426.311 263.822 426.468 264.499 426.784C265.181 427.099 265.701 427.544 266.059 428.12C266.421 428.695 266.602 429.373 266.602 430.152C266.602 430.932 266.421 431.62 266.059 432.217C265.701 432.814 265.181 433.28 264.499 433.617C263.822 433.953 262.997 434.122 262.025 434.122H257.123ZM259.098 432.46H262.025C262.588 432.46 263.063 432.349 263.451 432.127C263.843 431.906 264.139 431.618 264.339 431.265C264.544 430.911 264.646 430.532 264.646 430.127C264.646 429.539 264.42 429.034 263.969 428.612C263.517 428.186 262.869 427.973 262.025 427.973H259.098V432.46ZM268.008 424.304H270.016L272.374 431.546L274.669 424.304H276.676L273.288 433.956V437.804H271.422V433.956L268.008 424.304ZM278.467 437.804V424.304H280.334V425.895H280.494C280.604 425.691 280.764 425.454 280.973 425.186C281.182 424.917 281.472 424.683 281.842 424.483C282.213 424.278 282.703 424.176 283.313 424.176C284.105 424.176 284.813 424.376 285.435 424.777C286.057 425.177 286.545 425.755 286.899 426.509C287.256 427.263 287.435 428.171 287.435 429.232C287.435 430.293 287.259 431.203 286.905 431.961C286.551 432.716 286.065 433.297 285.448 433.706C284.83 434.111 284.124 434.314 283.332 434.314C282.735 434.314 282.247 434.213 281.868 434.013C281.493 433.813 281.199 433.578 280.986 433.31C280.773 433.042 280.609 432.803 280.494 432.594H280.379V437.804H278.467ZM280.34 429.213C280.34 429.903 280.44 430.508 280.641 431.028C280.841 431.548 281.131 431.955 281.51 432.249C281.889 432.539 282.354 432.684 282.903 432.684C283.475 432.684 283.952 432.532 284.335 432.23C284.719 431.923 285.009 431.507 285.205 430.983C285.405 430.459 285.505 429.869 285.505 429.213C285.505 428.565 285.407 427.983 285.211 427.468C285.019 426.952 284.729 426.545 284.342 426.247C283.958 425.949 283.479 425.799 282.903 425.799C282.35 425.799 281.881 425.942 281.497 426.228C281.118 426.513 280.83 426.912 280.634 427.423C280.438 427.934 280.34 428.531 280.34 429.213ZM288.394 425.953V424.304H296.678V425.953H293.476V434.122H291.609V425.953H288.394ZM304.977 424.304V425.953H300.585V434.122H298.7V424.304H304.977ZM306.223 424.304H308.23L310.589 431.546L312.884 424.304H314.891L311.503 433.956V437.804H309.637V433.956L306.223 424.304ZM315.909 424.304H317.916L320.275 431.546L322.569 424.304H324.576L321.189 433.956V437.804H319.322V433.956L315.909 424.304ZM324.786 434.122L324.779 432.466H325.131C325.404 432.466 325.632 432.409 325.815 432.294C326.002 432.174 326.156 431.974 326.275 431.693C326.394 431.412 326.486 431.024 326.55 430.529C326.614 430.031 326.661 429.404 326.691 428.65L326.863 424.304H333.715V434.122H331.843V425.953H328.634L328.48 429.289C328.442 430.099 328.359 430.806 328.231 431.412C328.108 432.017 327.926 432.522 327.688 432.926C327.449 433.327 327.142 433.627 326.767 433.828C326.392 434.024 325.936 434.122 325.399 434.122H324.786ZM339.639 425.831C339.307 425.836 338.987 425.914 338.68 426.068C338.374 426.221 338.12 426.426 337.92 426.681C337.724 426.937 337.626 427.227 337.626 427.551H335.823C335.823 427.091 335.926 426.656 336.13 426.247C336.335 425.838 336.614 425.478 336.967 425.167C337.321 424.855 337.728 424.61 338.188 424.431C338.649 424.252 339.132 424.163 339.639 424.163C340.564 424.163 341.346 424.389 341.985 424.841C342.629 425.288 343.117 425.885 343.449 426.63C343.781 427.372 343.948 428.186 343.948 429.072V429.392C343.948 430.278 343.781 431.094 343.449 431.84C343.117 432.586 342.629 433.182 341.985 433.63C341.346 434.077 340.564 434.301 339.639 434.301C338.898 434.301 338.239 434.143 337.664 433.828C337.089 433.512 336.637 433.082 336.309 432.537C335.985 431.987 335.823 431.36 335.823 430.657H337.626C337.626 431.007 337.717 431.331 337.901 431.629C338.084 431.927 338.327 432.168 338.629 432.351C338.936 432.53 339.273 432.622 339.639 432.626C340.189 432.622 340.643 432.456 341.001 432.127C341.363 431.799 341.631 431.388 341.806 430.894C341.985 430.395 342.075 429.895 342.075 429.392V429.072C342.075 428.548 341.985 428.039 341.806 427.544C341.631 427.05 341.363 426.643 341.001 426.323C340.643 426 340.189 425.836 339.639 425.831ZM342.746 428.452V429.922H338.725V428.452H342.746ZM347.195 424.304L349.362 428.126L351.548 424.304H353.638L350.576 429.213L353.663 434.122H351.573L349.362 430.453L347.156 434.122H345.06L348.115 429.213L345.098 424.304H347.195Z" fill="#003585"/>
<rect x="89.5" y="403.622" width="431" height="47" rx="4.5" stroke="white"/>
<rect x="89.5" y="403.622" width="431" height="47" rx="4.5" stroke="#A7F65C"/>
</g>
<defs>
<filter id="filter0_d_134_1413" x="53" y="0" width="513" height="479" filterUnits="userSpaceOnUse" color-interpolation-filters="sRGB">
<feFlood flood-opacity="0" result="BackgroundImageFix"/>
<feColorMatrix in="SourceAlpha" type="matrix" values="0 0 0 0 0 0 0 0 0 0 0 0 0 0 0 0 0 0 127 0" result="hardAlpha"/>
<feOffset dx="5" dy="5"/>
<feGaussianBlur stdDeviation="2"/>
<feComposite in2="hardAlpha" operator="out"/>
<feColorMatrix type="matrix" values="0 0 0 0 0 0 0 0 0 0.0719381 0 0 0 0 0.179167 0 0 0 0.78 0"/>
<feBlend mode="normal" in2="BackgroundImageFix" result="effect1_dropShadow_134_1413"/>
<feBlend mode="normal" in="SourceGraphic" in2="effect1_dropShadow_134_1413" result="shape"/>
</filter>
<clipPath id="clip0_134_1413">
<rect width="20" height="20" fill="white" transform="translate(104 195.122)"/>
</clipPath>
</defs>
</svg>
