<svg width="24" height="24" viewBox="0 0 24 24" fill="none" xmlns="http://www.w3.org/2000/svg">
<g clip-path="url(#clip0_744_649)">
<path d="M7 17L8.41 15.59L5.83 13L16 13V11L5.83 11L8.41 8.42L7 7L2 12L7 17ZM20 19H12V21H20C21.1 21 22 20.1 22 19L22 5C22 3.9 21.1 3 20 3H12V5H20L20 19Z" fill="white"/>
<path d="M7 17L8.41 15.59L5.83 13L16 13V11L5.83 11L8.41 8.42L7 7L2 12L7 17ZM20 19H12V21H20C21.1 21 22 20.1 22 19L22 5C22 3.9 21.1 3 20 3H12V5H20L20 19Z" fill="#003585"/>
</g>
<defs>
<clipPath id="clip0_744_649">
<rect width="24" height="24" fill="white" transform="translate(24 24) rotate(-180)"/>
</clipPath>
</defs>
</svg>
