<svg width="19" height="18" viewBox="0 0 19 18" fill="none" xmlns="http://www.w3.org/2000/svg">
<path d="M2.32834 2.06641H3.57621C4.35074 2.06641 4.96033 2.73337 4.89578 3.50073L4.30054 10.6437C4.20013 11.8126 5.12527 12.8167 6.30142 12.8167H13.9392C14.9719 12.8167 15.8755 11.9704 15.9544 10.9449L16.3417 5.56616C16.4278 4.37567 15.5241 3.4075 14.3265 3.4075H5.06791" stroke="#003585" stroke-width="1.47531" stroke-miterlimit="10" stroke-linecap="round" stroke-linejoin="round"/>
<path d="M12.5479 16.4097C13.043 16.4097 13.4444 16.0083 13.4444 15.5132C13.4444 15.0181 13.043 14.6168 12.5479 14.6168C12.0528 14.6168 11.6515 15.0181 11.6515 15.5132C11.6515 16.0083 12.0528 16.4097 12.5479 16.4097Z" stroke="#003585" stroke-width="1.47531" stroke-miterlimit="10" stroke-linecap="round" stroke-linejoin="round"/>
<path d="M6.81067 16.4097C7.30577 16.4097 7.70712 16.0083 7.70712 15.5132C7.70712 15.0181 7.30577 14.6168 6.81067 14.6168C6.31557 14.6168 5.91422 15.0181 5.91422 15.5132C5.91422 16.0083 6.31557 16.4097 6.81067 16.4097Z" stroke="#003585" stroke-width="1.47531" stroke-miterlimit="10" stroke-linecap="round" stroke-linejoin="round"/>
<path d="M7.34848 6.36938H15.9544" stroke="#003585" stroke-width="1.47531" stroke-miterlimit="10" stroke-linecap="round" stroke-linejoin="round"/>
</svg>
