<svg width="25" height="25" viewBox="0 0 25 25" fill="none" xmlns="http://www.w3.org/2000/svg">
<path d="M6.98167 21.1C8.48167 22 10.2817 22.5 12.0817 22.5C17.5817 22.5 22.0817 18 22.0817 12.5C22.0817 7 17.5817 2.5 12.0817 2.5C6.58167 2.5 2.08167 7 2.08167 12.5C2.08167 14.3 2.58166 16 3.38166 17.5L2.52211 20.806C2.32738 21.5549 3.02059 22.2317 3.76465 22.0191L6.98167 21.1Z" stroke="#3B3B3B" stroke-width="1.5" stroke-miterlimit="10" stroke-linecap="round" stroke-linejoin="round"/>
<path d="M16.5817 15.3485C16.5817 15.5105 16.5456 15.677 16.469 15.839C16.3924 16.001 16.2932 16.154 16.1625 16.298C15.9417 16.541 15.6983 16.7165 15.4234 16.829C15.153 16.9415 14.8601 17 14.5446 17C14.0849 17 13.5937 16.892 13.0754 16.6715C12.5571 16.451 12.0389 16.154 11.5251 15.7805C11.0068 15.4025 10.5156 14.984 10.0469 14.5205C9.58267 14.0525 9.16354 13.562 8.78948 13.049C8.41992 12.536 8.12248 12.023 7.90615 11.5145C7.68983 11.0015 7.58167 10.511 7.58167 10.043C7.58167 9.737 7.63575 9.4445 7.74391 9.1745C7.85207 8.9 8.02333 8.648 8.26219 8.423C8.55062 8.1395 8.86609 8 9.19959 8C9.32578 8 9.45197 8.027 9.56464 8.081C9.68182 8.135 9.78547 8.216 9.86659 8.333L10.9122 9.8045C10.9933 9.917 11.0519 10.0205 11.0924 10.1195C11.133 10.214 11.1555 10.3085 11.1555 10.394C11.1555 10.502 11.124 10.61 11.0609 10.7135C11.0023 10.817 10.9167 10.925 10.8085 11.033L10.466 11.3885C10.4164 11.438 10.3939 11.4965 10.3939 11.5685C10.3939 11.6045 10.3984 11.636 10.4074 11.672C10.4209 11.708 10.4344 11.735 10.4435 11.762C10.5246 11.9105 10.6643 12.104 10.8626 12.338C11.0654 12.572 11.2817 12.8105 11.5161 13.049C11.7594 13.2875 11.9938 13.508 12.2326 13.7105C12.467 13.9085 12.6608 14.0435 12.814 14.1245C12.8365 14.1335 12.8636 14.147 12.8951 14.1605C12.9312 14.174 12.9672 14.1785 13.0078 14.1785C13.0844 14.1785 13.143 14.1515 13.1926 14.102L13.5351 13.7645C13.6478 13.652 13.7559 13.5665 13.8596 13.5125C13.9632 13.4495 14.0669 13.418 14.1796 13.418C14.2652 13.418 14.3553 13.436 14.4545 13.4765C14.5536 13.517 14.6573 13.5755 14.7699 13.652L16.2617 14.7095C16.3789 14.7905 16.46 14.885 16.5096 14.9975C16.5546 15.11 16.5817 15.2225 16.5817 15.3485Z" stroke="#3B3B3B" stroke-width="1.5" stroke-miterlimit="10"/>
</svg>
